<svg xmlns="http://www.w3.org/2000/svg" height="40px" viewBox="0 -960 960 960" width="40px" fill="#e3e3e3"><path d="M480-80q-86.33 0-161.33-33.83-75-33.84-129.34-91.17Q135-262.33 105.5-339.33 76-416.33 80.67-502H148q-4.67 72 19 136.5t69.17 113.33q45.5 48.84 108.33 77.67T480-145.67q139.33 0 236.33-97t97-236.33q0-139.33-97-236.33t-236.33-97q-96.33 0-174.17 48.83Q228-714.67 186-635.33h124.67v66.66H80V-800h66.67v99.33q54.33-81.66 141-130.5Q374.33-880 480-880q83 0 156 31.5T763-763q54 54 85.5 127T880-480q0 83-31.5 156T763-197q-54 54-127 85.5T480-80Zm-80-243.33q-15 0-25.83-10.84Q363.33-345 363.33-360v-120q0-15 11.5-25.83 11.5-10.84 28.5-10.84V-560q0-31.67 22.5-54.17t54.17-22.5q31.67 0 54.17 22.5t22.5 54.17v43.33q17 0 28.5 10.84 11.5 10.83 11.5 25.83v120q0 15-10.84 25.83Q575-323.33 560-323.33H400Zm36.67-193.34h86.66V-560q0-18.33-12.5-30.83T480-603.33q-18.33 0-30.83 12.5T436.67-560v43.33Z"/></svg>